<?xml version="1.0" encoding="utf-8"?>
<!-- Generator: Adobe Illustrator 24.0.0, SVG Export Plug-In . SVG Version: 6.00 Build 0)  -->
<svg version="1.1" id="Layer_1" xmlns="http://www.w3.org/2000/svg" xmlns:xlink="http://www.w3.org/1999/xlink" x="0px" y="0px"
	 viewBox="0 0 320 140" style="enable-background:new 0 0 320 140;" xml:space="preserve">
<path style="fill:#FFFFFF;" d="M163.3,79.4c20.1,10.7,37.4,6.6,37.3-7.6c-0.1-19.9-38.3-15.6-38.3-42.8c0-12.7,12-27.7,46-19.2v11.3
	c-18.9-9.8-33.9-6.7-33.9,6c0.1,16.5,40.2,15,38.9,42.7c-1,21.1-21.7,27.6-50,20.6L163.3,79.4L163.3,79.4z"/>
<path style="fill:#FFFFFF;" d="M266.5,74.8c0,0-18.6-52.9-21.2-60.2c-2-5.5-8-5.9-10.7-5.9h-5.3l-11.8,83.1h8.7l8.9-70.1l23.2,70.1
	H270l23.6-70.2c1.7,16,6.7,70.2,6.7,70.2h7.6c6,0,6.3-4.8,6-7.4c-0.2-1.9-6.3-60.6-7-67c-0.7-6.5-6.4-8.7-9.9-8.7h-7.8L266.5,74.8z"
	/>
<path style="fill:#FFFFFF;" d="M104.3,91.7V8.8h23.8c22.2,0,28.3,9.8,28.3,21.9s-6.1,21.7-28.3,21.7h-10.9c0,0,0,30.9,0,31.9
	c0,2.7-0.4,7.4-6.4,7.4H104.3 M117.5,45.9h10.6c10.8,0,15.1-6.8,15.1-15.2s-4.3-15.2-15.1-15.2h-6.7c-2.2,0-3.9,1.8-3.9,4
	L117.5,45.9L117.5,45.9z"/>
<path style="fill:#FFFFFF;" d="M49.9,93.3c-25,0-45.3-14.8-45.3-43.1c0-26.1,20.3-43.1,45.3-43.1s45.3,15.1,45.3,43.1
	C95.2,75.9,74.9,93.3,49.9,93.3 M81.2,50.2c0-26.3-14-37.2-31.4-37.2c-17.3,0-31.4,16.6-31.4,37.2c0,25.4,14,37.2,31.4,37.2
	S81.2,70.8,81.2,50.2"/>
<polygon style="fill:#FFFFFF;" points="62.4,130.6 62.4,133.8 49.6,133.8 49.6,120.5 53.5,120.5 53.5,130.6 "/>
<rect x="66.6" y="120.5" style="fill:#FFFFFF;" width="3.9" height="13.3"/>
<polygon style="fill:#FFFFFF;" points="79.8,123.5 79.8,126 88.2,126 88.2,129.1 79.8,129.1 79.8,133.8 75.9,133.8 75.9,120.5 
	89.8,120.5 89.8,123.5 "/>
<polygon style="fill:#FFFFFF;" points="108.3,130.8 108.3,133.8 94.1,133.8 94.1,120.5 108.1,120.5 108.1,123.4 97.9,123.4 
	97.9,125.6 106.3,125.6 106.3,128.4 97.9,128.4 97.9,130.8 "/>
<path style="fill:#FFFFFF;" d="M112.2,132.1c0-1.1,0.9-1.9,2.2-1.9s2.2,0.8,2.2,1.9c0,1.1-0.9,1.9-2.2,1.9
	C113.1,134,112.2,133.2,112.2,132.1"/>
<polygon style="fill:#FFFFFF;" points="132.4,123.5 132.4,126 140.8,126 140.8,129.1 132.4,129.1 132.4,133.8 128.5,133.8 
	128.5,120.5 142.4,120.5 142.4,123.5 "/>
<path style="fill:#FFFFFF;" d="M145.6,127.1c0-4.5,3.4-7.1,8.7-7.1s8.7,2.6,8.7,7.1s-3.4,7.1-8.7,7.1
	C149,134.2,145.6,131.6,145.6,127.1 M159,127.1c0-2.5-1.8-3.9-4.7-3.9s-4.7,1.4-4.7,3.9s1.8,3.9,4.7,3.9S159,129.6,159,127.1"/>
<path style="fill:#FFFFFF;" d="M179.4,129l3.3,1.7c-1.2,2-3.9,3.5-7.5,3.5c-5,0-8.4-2.6-8.4-7.1s3.4-7.1,8.5-7.1
	c3.4,0,6.1,1.6,7.3,3.5l-3.3,1.7c-0.9-1.4-2.2-2-4-2c-2.7,0-4.6,1.4-4.6,3.9s1.8,3.9,4.6,3.9C177.1,131,178.5,130.4,179.4,129"/>
<path style="fill:#FFFFFF;" d="M202.2,120.5v7c0,4-2.8,6.7-7.7,6.7c-5,0-7.7-2.7-7.7-6.7v-7h3.9v6.7c0,2.3,1.3,3.8,3.9,3.8
	s3.8-1.5,3.8-3.8v-6.7H202.2z"/>
<path style="fill:#FFFFFF;" d="M222,129.6c0,2.7-2.5,4.6-7.4,4.6c-3.4,0-6.3-0.9-8.4-2.6l2-2.4c1.6,1.3,3.8,2.1,6.4,2.1
	c2.3,0,3.4-0.4,3.4-1.3c0-0.9-1.1-1.1-3.8-1.4c-4-0.3-7.5-1.2-7.5-4.2c0-2.8,3.1-4.4,7.3-4.4c2.9,0,5.5,0.7,7.3,2l-2,2.4
	c-1.5-1-3.3-1.5-5.3-1.5c-1.6,0-3.4,0.2-3.4,1.2c0,0.9,1.5,1,3.9,1.2C218.9,125.7,222,126.5,222,129.6"/>
<polygon style="fill:#FFFFFF;" points="240.7,130.8 240.7,133.8 226.5,133.8 226.5,120.5 240.4,120.5 240.4,123.4 230.3,123.4 
	230.3,125.6 238.7,125.6 238.7,128.4 230.3,128.4 230.3,130.8 "/>
<path style="fill:#FFFFFF;" d="M261.1,127.1c0,4.2-3.2,6.6-8.4,6.6h-7.4v-13.3h7.4C257.8,120.5,261.1,122.9,261.1,127.1
	 M257.1,127.1c0-2.4-1.9-3.6-4.7-3.6h-3.2v7.1h3.2C255.3,130.7,257.1,129.5,257.1,127.1"/>
<path style="fill:#FFFFFF;" d="M264.5,132.1c0-1.1,0.9-1.9,2.2-1.9c1.3,0,2.2,0.8,2.2,1.9c0,1.1-0.9,1.9-2.2,1.9
	S264.5,133.2,264.5,132.1"/>
</svg>
