<?xml version="1.0" encoding="utf-8"?>
<svg width="67px" height="67px" viewBox="0 0 67 67" version="1.1" xmlns:xlink="http://www.w3.org/1999/xlink" xmlns="http://www.w3.org/2000/svg">
  <desc>Created with Lunacy</desc>
  <g id="Play-Button-Copy" transform="translate(0.5 0.5)">
    <path d="M32.7289 0C14.653 0 0 14.655 0 32.7309C0 50.8017 14.653 65.4578 32.7289 65.4578C50.8048 65.4578 65.4578 50.8017 65.4578 32.7309C65.4578 14.655 50.8048 0 32.7289 0" transform="translate(1.7053026E-13 0.00020307692)" id="Fill-1" fill="#131A1C" fill-opacity="0.40392157" fill-rule="evenodd" stroke="#FFFFFF" stroke-width="1" />
    <path d="M9.68677 22.6938C12.3674 22.6938 14.1342 22.2065 15.5658 21.4449L15.5658 17.5154L15.1771 17.6894C14.1041 18.1547 12.7262 18.612 10.7225 18.612C6.66784 18.612 5.29769 16.6278 5.24122 12.5167L5.23938 9.80862C5.23938 5.48308 7.24985 4.08185 10.7834 4.08185C12.672 4.08185 13.9514 4.44738 15.3831 4.96523L15.3831 1.03569C14.1646 0.365538 12.4892 0 10.0523 0C4.44738 0 0 2.61969 0 10.296L0 12.4588C0 19.5868 3.68585 22.6938 9.68677 22.6938ZM27.0295 22.6938C21.0286 22.6938 17.3428 19.5868 17.3428 12.4588L17.3428 10.296C17.3428 2.61969 21.7902 0 27.3951 0C29.832 0 31.5074 0.365538 32.7258 1.03569L32.7258 4.96523C31.2942 4.44738 30.0148 4.08185 28.1262 4.08185C24.5926 4.08185 22.5822 5.48308 22.5822 9.80862L22.5822 12.2455C22.5822 16.5406 23.9225 18.612 28.0652 18.612C30.3194 18.612 31.7815 18.0332 32.9086 17.5154L32.9086 21.4449C31.4769 22.2065 29.7102 22.6938 27.0295 22.6938Z" transform="translate(15.403486 21.333231)" id="CC" fill="#FFFFFF" stroke="none" />
  </g>
</svg>